<svg xmlns="http://www.w3.org/2000/svg" width="1200" height="630" viewBox="0 0 1200 630" role="img" aria-label="Second Brain Systems">
  <defs>
    <linearGradient id="bg" x1="0" y1="0" x2="1" y2="1">
      <stop offset="0" stop-color="#f8f3e8"/>
      <stop offset="0.58" stop-color="#eee4d2"/>
      <stop offset="1" stop-color="#dce7e5"/>
    </linearGradient>
    <filter id="shadow" x="-20%" y="-20%" width="140%" height="140%">
      <feDropShadow dx="0" dy="18" stdDeviation="18" flood-color="#111827" flood-opacity="0.12"/>
    </filter>
  </defs>
  <rect width="1200" height="630" fill="url(#bg)"/>
  <rect x="88" y="84" width="1024" height="462" rx="28" fill="#fffdf8" stroke="#d8cdbb" filter="url(#shadow)"/>
  <path d="M142 444 C280 328, 380 454, 520 340 S800 236, 1028 316" fill="none" stroke="#d69d45" stroke-width="10" stroke-linecap="round" opacity="0.7"/>
  <path d="M184 392 C318 256, 478 340, 610 250 S790 202, 964 246" fill="none" stroke="#263238" stroke-width="3" stroke-linecap="round" opacity="0.28"/>
  <g fill="#263238" opacity="0.92">
    <circle cx="184" cy="392" r="13"/>
    <circle cx="372" cy="362" r="13"/>
    <circle cx="610" cy="250" r="13"/>
    <circle cx="832" cy="226" r="13"/>
    <circle cx="964" cy="246" r="13"/>
  </g>
  <text x="142" y="158" fill="#263238" font-family="Inter, ui-sans-serif, system-ui" font-size="18" font-weight="700" letter-spacing="4">KNOWLEDGE / CONCEPT</text>
  <foreignObject x="140" y="190" width="700" height="190">
    <div xmlns="http://www.w3.org/1999/xhtml" style="font-family: Inter, ui-sans-serif, system-ui; color: #263238; font-size: 56px; line-height: 1.02; font-weight: 760; letter-spacing: -1px;">Second Brain Systems</div>
  </foreignObject>
  <text x="142" y="506" fill="#6b6358" font-family="Inter, ui-sans-serif, system-ui" font-size="24">3,743 words · 17 min read · 8 source notes</text>
</svg>